<?xml version="1.0" encoding="UTF-8" standalone="no"?>
<!DOCTYPE svg PUBLIC "-//W3C//DTD SVG 1.0//EN"
 "http://www.w3.org/TR/2001/REC-SVG-20010904/DTD/svg10.dtd">
<!-- Generated by dot version 1.10 (Wed Jul 9 23:09:17 EDT 2003)
     For user: Bill Gates   Title: fejoz    Pages: 1 -->
<svg width="4274px" height="1845px"
 viewBox = "-1 -1 3205 1383"
 xmlns="http://www.w3.org/2000/svg">
<g id="graph0" class="graph" style="font-family:Times-Roman;font-size:14.00;">
<title>fejoz</title>
<g id="node1" class="node"><title>132</title>
<polygon style="fill:none;stroke:black;" points="5,56 239,56 239,20 5,20 5,56"/>
<text text-anchor="middle" x="122" y="35">Joséphine Euphroisie chalaye</text>
<text text-anchor="middle" x="122" y="51">o 23 OCT 1876</text>
</g>
<g id="node3" class="node"><title>201</title>
<ellipse cx="360" cy="126" rx="49" ry="18" style="fill:none;stroke:black;"/>
<text text-anchor="middle" x="360" y="131">x BEF 1875</text>
</g>
<g id="edge2" class="edge"><title>132-&gt;201</title>
<path style="fill:none;stroke:black;" d="M171,56C214,72 274,94 316,110"/>
<polygon style="fill:black;stroke:black;" points="316,107 325,113 315,112 316,107"/>
</g>
<g id="node110" class="node"><title>121</title>
<polygon style="fill:none;stroke:black;" points="172,240 350,240 350,188 172,188 172,240"/>
<text text-anchor="middle" x="261" y="203">Régis Joseph chalaye</text>
<text text-anchor="middle" x="261" y="219">o ABT 1843</text>
<text text-anchor="middle" x="261" y="235">+ BEF 20 JUN 1880</text>
</g>
<g id="edge86" class="edge"><title>201-&gt;121</title>
<path style="fill:none;stroke:black;" d="M341,143C329,154 313,168 298,181"/>
<polygon style="fill:black;stroke:black;" points="300,183 291,188 296,179 300,183"/>
</g>
<g id="node111" class="node"><title>127</title>
<polygon style="fill:none;stroke:black;" points="368,232 551,232 551,196 368,196 368,232"/>
<text text-anchor="middle" x="459" y="211">Marie Mélanie chazot</text>
<text text-anchor="middle" x="459" y="227">o ABT 1854</text>
</g>
<g id="edge88" class="edge"><title>201-&gt;127</title>
<path style="fill:none;stroke:black;" d="M379,143C394,156 415,175 431,190"/>
<polygon style="fill:black;stroke:black;" points="432,188 438,196 429,191 432,188"/>
</g>
<g id="node4" class="node"><title>134</title>
<polygon style="fill:none;stroke:black;" points="257,56 464,56 464,20 257,20 257,56"/>
<text text-anchor="middle" x="360" y="35">Marie Claire Louise chalaye</text>
<text text-anchor="middle" x="360" y="51">o 20 JUN 1880</text>
</g>
<g id="edge4" class="edge"><title>134-&gt;201</title>
<path style="fill:none;stroke:black;" d="M360,56C360,68 360,85 360,99"/>
<polygon style="fill:black;stroke:black;" points="363,98 360,108 358,98 363,98"/>
</g>
<g id="node6" class="node"><title>137</title>
<polygon style="fill:none;stroke:black;" points="529,144 749,144 749,108 529,108 529,144"/>
<text text-anchor="middle" x="639" y="123">Jean Joseph Eugène chalaye</text>
<text text-anchor="middle" x="639" y="139">o ABT 1811</text>
</g>
<g id="node7" class="node"><title>10</title>
<polygon style="fill:none;stroke:black;" points="1271,152 1420,152 1420,100 1271,100 1271,152"/>
<text text-anchor="middle" x="1345" y="115">Jules Régis astier</text>
<text text-anchor="middle" x="1345" y="131">o 14 JUN 1896</text>
<text text-anchor="middle" x="1345" y="147">+ 22 MAY 1974</text>
</g>
<g id="node9" class="node"><title>327</title>
<ellipse cx="1084" cy="214" rx="27" ry="18" style="fill:none;stroke:black;"/>
</g>
<g id="edge6" class="edge"><title>10-&gt;327</title>
<path style="fill:none;stroke:black;" d="M1271,152C1217,171 1154,192 1116,203"/>
<polygon style="fill:black;stroke:black;" points="1118,205 1108,206 1116,200 1118,205"/>
</g>
<g id="node11" class="node"><title>269</title>
<polygon style="fill:none;stroke:black;" points="1028,328 1140,328 1140,276 1028,276 1028,328"/>
<text text-anchor="middle" x="1084" y="291">Auguste astier</text>
<text text-anchor="middle" x="1084" y="307">o ABT 1850</text>
<text text-anchor="middle" x="1084" y="323">+ 1931</text>
</g>
<g id="edge90" class="edge"><title>327-&gt;269</title>
<path style="fill:none;stroke:black;" d="M1084,232C1084,242 1084,254 1084,266"/>
<polygon style="fill:black;stroke:black;" points="1087,266 1084,276 1082,266 1087,266"/>
</g>
<g id="node28" class="node"><title>29</title>
<polygon style="fill:none;stroke:black;" points="951,320 1010,320 1010,284 951,284 951,320"/>
<text text-anchor="middle" x="980" y="307">Louise</text>
</g>
<g id="edge92" class="edge"><title>327-&gt;29</title>
<path style="fill:none;stroke:black;" d="M1067,228C1052,241 1030,260 1010,276 1009,277 1009,277 1008,277"/>
<polygon style="fill:black;stroke:black;" points="1010,279 1001,284 1006,275 1010,279"/>
</g>
<g id="node10" class="node"><title>140</title>
<polygon style="fill:none;stroke:black;" points="767,144 900,144 900,108 767,108 767,144"/>
<text text-anchor="middle" x="833" y="123">Marie Julie vallet</text>
<text text-anchor="middle" x="833" y="139">o ABT 1834</text>
</g>
<g id="node13" class="node"><title>312</title>
<ellipse cx="1084" cy="382" rx="27" ry="18" style="fill:none;stroke:black;"/>
</g>
<g id="edge8" class="edge"><title>269-&gt;312</title>
<path style="fill:none;stroke:black;" d="M1084,328C1084,337 1084,346 1084,354"/>
<polygon style="fill:black;stroke:black;" points="1087,354 1084,364 1082,354 1087,354"/>
</g>
<g id="node22" class="node"><title>280</title>
<polygon style="fill:none;stroke:black;" points="967,488 1096,488 1096,436 967,436 967,488"/>
<text text-anchor="middle" x="1031" y="451">Mariette chalaye</text>
<text text-anchor="middle" x="1031" y="467">o ABT 1813</text>
<text text-anchor="middle" x="1031" y="483">+ AFT 1863</text>
</g>
<g id="edge124" class="edge"><title>312-&gt;280</title>
<path style="fill:none;stroke:black;" d="M1073,399C1068,408 1060,418 1054,428"/>
<polygon style="fill:black;stroke:black;" points="1056,429 1048,436 1052,426 1056,429"/>
</g>
<g id="node94" class="node"><title>276</title>
<polygon style="fill:none;stroke:black;" points="1113,488 1218,488 1218,436 1113,436 1113,488"/>
<text text-anchor="middle" x="1165" y="451">Isidore astier</text>
<text text-anchor="middle" x="1165" y="467">o 14 FEB 1816</text>
<text text-anchor="middle" x="1165" y="483">+ AFT 1863</text>
</g>
<g id="edge122" class="edge"><title>312-&gt;276</title>
<path style="fill:none;stroke:black;" d="M1099,397C1108,406 1120,418 1132,429"/>
<polygon style="fill:black;stroke:black;" points="1134,427 1139,436 1130,431 1134,427"/>
</g>
<g id="node14" class="node"><title>143</title>
<polygon style="fill:none;stroke:black;" points="1523,56 1697,56 1697,20 1523,20 1523,56"/>
<text text-anchor="middle" x="1610" y="35">Joseph Etienne chalaye</text>
<text text-anchor="middle" x="1610" y="51">o BEF 1883</text>
</g>
<g id="node15" class="node"><title>303</title>
<polygon style="fill:none;stroke:black;" points="672,1224 775,1224 775,1188 672,1188 672,1224"/>
<text text-anchor="middle" x="723" y="1211">Jeanne bayle</text>
</g>
<g id="node16" class="node"><title>146</title>
<polygon style="fill:none;stroke:black;" points="1910,640 2156,640 2156,604 1910,604 1910,640"/>
<text text-anchor="middle" x="2033" y="619">Jean François Régis monchal</text>
<text text-anchor="middle" x="2033" y="635">o ABT 1814</text>
</g>
<g id="node17" class="node"><title>19</title>
<polygon style="fill:none;stroke:black;" points="1438,152 1653,152 1653,100 1438,100 1438,152"/>
<text text-anchor="middle" x="1545" y="115">Juliette Marie Sophie chalaye</text>
<text text-anchor="middle" x="1545" y="131">o 31 OCT 1898</text>
<text text-anchor="middle" x="1545" y="147">+ NOV 1971</text>
</g>
<g id="node19" class="node"><title>176</title>
<ellipse cx="1548" cy="214" rx="49" ry="18" style="fill:none;stroke:black;"/>
<text text-anchor="middle" x="1548" y="219">x BEF 1898</text>
</g>
<g id="edge10" class="edge"><title>19-&gt;176</title>
<path style="fill:none;stroke:black;" d="M1546,152C1547,163 1547,175 1547,187"/>
<polygon style="fill:black;stroke:black;" points="1550,186 1547,196 1545,186 1550,186"/>
</g>
<g id="node39" class="node"><title>35</title>
<polygon style="fill:none;stroke:black;" points="1513,320 1584,320 1584,284 1513,284 1513,320"/>
<text text-anchor="middle" x="1548" y="307">Régis</text>
</g>
<g id="edge102" class="edge"><title>176-&gt;35</title>
<path style="fill:none;stroke:black;" d="M1548,232C1548,244 1548,261 1548,275"/>
<polygon style="fill:black;stroke:black;" points="1551,274 1548,284 1546,274 1551,274"/>
</g>
<g id="node48" class="node"><title>40</title>
<polygon style="fill:none;stroke:black;" points="1601,328 1838,328 1838,276 1601,276 1601,328"/>
<text text-anchor="middle" x="1719" y="291">Marie Célie Victorine gaillard</text>
<text text-anchor="middle" x="1719" y="307">o 16 APR 1874</text>
<text text-anchor="middle" x="1719" y="323">+ AFT FEB 1920</text>
</g>
<g id="edge104" class="edge"><title>176-&gt;40</title>
<path style="fill:none;stroke:black;" d="M1577,229C1600,241 1632,258 1660,272"/>
<polygon style="fill:black;stroke:black;" points="1660,269 1668,276 1658,274 1660,269"/>
</g>
<g id="node20" class="node"><title>148</title>
<polygon style="fill:none;stroke:black;" points="2174,640 2278,640 2278,604 2174,604 2174,640"/>
<text text-anchor="middle" x="2226" y="619">Marie chazot</text>
<text text-anchor="middle" x="2226" y="635">o ABT 1815</text>
</g>
<g id="node21" class="node"><title>150</title>
<polygon style="fill:none;stroke:black;" points="1715,56 1850,56 1850,20 1715,20 1715,56"/>
<text text-anchor="middle" x="1782" y="35">Régis monchal</text>
<text text-anchor="middle" x="1782" y="51">o ABT 1789</text>
</g>
<g id="node23" class="node"><title>153</title>
<polygon style="fill:none;stroke:black;" points="2064,232 2188,232 2188,196 2064,196 2064,232"/>
<text text-anchor="middle" x="2126" y="211">Joseph monchal</text>
<text text-anchor="middle" x="2126" y="227">o ABT 1822</text>
</g>
<g id="node24" class="node"><title>283</title>
<polygon style="fill:none;stroke:black;" points="980,640 1082,640 1082,604 980,604 980,640"/>
<text text-anchor="middle" x="1031" y="627">Claude astier</text>
</g>
<g id="node26" class="node"><title>315</title>
<ellipse cx="1031" cy="702" rx="27" ry="18" style="fill:none;stroke:black;"/>
</g>
<g id="edge12" class="edge"><title>283-&gt;315</title>
<path style="fill:none;stroke:black;" d="M1031,640C1031,650 1031,663 1031,674"/>
<polygon style="fill:black;stroke:black;" points="1034,674 1031,684 1029,674 1034,674"/>
</g>
<g id="node34" class="node"><title>288</title>
<polygon style="fill:none;stroke:black;" points="872,792 974,792 974,756 872,756 872,792"/>
<text text-anchor="middle" x="923" y="779">Claude astier</text>
</g>
<g id="edge134" class="edge"><title>315-&gt;288</title>
<path style="fill:none;stroke:black;" d="M1012,715C997,726 976,739 957,751"/>
<polygon style="fill:black;stroke:black;" points="960,752 950,756 957,748 960,752"/>
</g>
<g id="node82" class="node"><title>290</title>
<polygon style="fill:none;stroke:black;" points="992,792 1139,792 1139,756 992,756 992,792"/>
<text text-anchor="middle" x="1065" y="779">Marguerite buisson</text>
</g>
<g id="edge136" class="edge"><title>315-&gt;290</title>
<path style="fill:none;stroke:black;" d="M1039,719C1043,727 1048,738 1052,747"/>
<polygon style="fill:black;stroke:black;" points="1054,746 1056,756 1050,748 1054,746"/>
</g>
<g id="node27" class="node"><title>156</title>
<polygon style="fill:none;stroke:black;" points="2206,232 2363,232 2363,196 2206,196 2206,232"/>
<text text-anchor="middle" x="2284" y="211">Victoire Marie faure</text>
<text text-anchor="middle" x="2284" y="227">o ABT 1824</text>
</g>
<g id="node30" class="node"><title>179</title>
<ellipse cx="872" cy="382" rx="49" ry="18" style="fill:none;stroke:black;"/>
<text text-anchor="middle" x="872" y="387">x BEF 1864</text>
</g>
<g id="edge14" class="edge"><title>29-&gt;179</title>
<path style="fill:none;stroke:black;" d="M961,320C958,323 954,326 951,328 937,340 919,352 905,361"/>
<polygon style="fill:black;stroke:black;" points="907,363 897,366 904,359 907,363"/>
</g>
<g id="node55" class="node"><title>45</title>
<polygon style="fill:none;stroke:black;" points="609,488 777,488 777,436 609,436 609,488"/>
<text text-anchor="middle" x="693" y="451">Jean Antoine dantony</text>
<text text-anchor="middle" x="693" y="467">o ABT 1808</text>
<text text-anchor="middle" x="693" y="483">+ AFT 1866</text>
</g>
<g id="edge114" class="edge"><title>179-&gt;45</title>
<path style="fill:none;stroke:black;" d="M841,396C819,406 788,420 760,432"/>
<polygon style="fill:black;stroke:black;" points="762,434 752,436 760,429 762,434"/>
</g>
<g id="node60" class="node"><title>48</title>
<polygon style="fill:none;stroke:black;" points="795,488 949,488 949,436 795,436 795,488"/>
<text text-anchor="middle" x="872" y="451">Marie Julie mounier</text>
<text text-anchor="middle" x="872" y="467">o ABT 1828</text>
<text text-anchor="middle" x="872" y="483">+ AFT 1866</text>
</g>
<g id="edge116" class="edge"><title>179-&gt;48</title>
<path style="fill:none;stroke:black;" d="M872,400C872,408 872,417 872,426"/>
<polygon style="fill:black;stroke:black;" points="875,426 872,436 870,426 875,426"/>
</g>
<g id="node31" class="node"><title>159</title>
<polygon style="fill:none;stroke:black;" points="1867,56 2096,56 2096,20 1867,20 1867,56"/>
<text text-anchor="middle" x="1981" y="35">Marie Victoire Ursule monchal</text>
<text text-anchor="middle" x="1981" y="51">o 8 NOV 1848</text>
</g>
<g id="node33" class="node"><title>210</title>
<ellipse cx="2205" cy="126" rx="71" ry="18" style="fill:none;stroke:black;"/>
<text text-anchor="middle" x="2205" y="131">x BEF NOV 1848</text>
</g>
<g id="edge16" class="edge"><title>159-&gt;210</title>
<path style="fill:none;stroke:black;" d="M2027,56C2065,71 2118,93 2157,108"/>
<polygon style="fill:black;stroke:black;" points="2157,105 2166,111 2156,110 2157,105"/>
</g>
<g id="edge110" class="edge"><title>210-&gt;153</title>
<path style="fill:none;stroke:black;" d="M2189,144C2178,157 2162,175 2149,189"/>
<polygon style="fill:black;stroke:black;" points="2151,190 2143,196 2148,187 2151,190"/>
</g>
<g id="edge112" class="edge"><title>210-&gt;156</title>
<path style="fill:none;stroke:black;" d="M2221,144C2232,157 2248,175 2261,189"/>
<polygon style="fill:black;stroke:black;" points="2262,187 2267,196 2259,190 2262,187"/>
</g>
<g id="node36" class="node"><title>316</title>
<ellipse cx="923" cy="846" rx="27" ry="18" style="fill:none;stroke:black;"/>
</g>
<g id="edge18" class="edge"><title>288-&gt;316</title>
<path style="fill:none;stroke:black;" d="M923,792C923,800 923,809 923,818"/>
<polygon style="fill:black;stroke:black;" points="926,818 923,828 921,818 926,818"/>
</g>
<g id="node42" class="node"><title>292</title>
<polygon style="fill:none;stroke:black;" points="813,936 908,936 908,900 813,900 813,936"/>
<text text-anchor="middle" x="860" y="923">Pierre astier</text>
</g>
<g id="edge118" class="edge"><title>316-&gt;292</title>
<path style="fill:none;stroke:black;" d="M909,862C901,871 891,882 882,893"/>
<polygon style="fill:black;stroke:black;" points="884,894 876,900 881,891 884,894"/>
</g>
<g id="node47" class="node"><title>294</title>
<polygon style="fill:none;stroke:black;" points="925,936 1050,936 1050,900 925,900 925,936"/>
<text text-anchor="middle" x="987" y="923">Marguerite berc</text>
</g>
<g id="edge120" class="edge"><title>316-&gt;294</title>
<path style="fill:none;stroke:black;" d="M937,862C945,871 956,882 965,893"/>
<polygon style="fill:black;stroke:black;" points="966,891 971,900 963,894 966,891"/>
</g>
<g id="node37" class="node"><title>162</title>
<polygon style="fill:none;stroke:black;" points="2113,56 2297,56 2297,20 2113,20 2113,56"/>
<text text-anchor="middle" x="2205" y="35">Marie Cécile monchal</text>
<text text-anchor="middle" x="2205" y="51">o 8 NOV 1848</text>
</g>
<g id="edge20" class="edge"><title>162-&gt;210</title>
<path style="fill:none;stroke:black;" d="M2205,56C2205,68 2205,85 2205,99"/>
<polygon style="fill:black;stroke:black;" points="2208,98 2205,108 2203,98 2208,98"/>
</g>
<g id="node41" class="node"><title>188</title>
<ellipse cx="1548" cy="382" rx="59" ry="18" style="fill:none;stroke:black;"/>
<text text-anchor="middle" x="1548" y="387">x 24 OCT 1871</text>
</g>
<g id="edge22" class="edge"><title>35-&gt;188</title>
<path style="fill:none;stroke:black;" d="M1548,320C1548,330 1548,343 1548,354"/>
<polygon style="fill:black;stroke:black;" points="1551,354 1548,364 1546,354 1551,354"/>
</g>
<g id="node76" class="node"><title>73</title>
<polygon style="fill:none;stroke:black;" points="1496,480 1601,480 1601,444 1496,444 1496,480"/>
<text text-anchor="middle" x="1548" y="467">Joseph Julien</text>
</g>
<g id="edge138" class="edge"><title>188-&gt;73</title>
<path style="fill:none;stroke:black;" d="M1548,400C1548,410 1548,423 1548,434"/>
<polygon style="fill:black;stroke:black;" points="1551,434 1548,444 1546,434 1551,434"/>
</g>
<g id="node79" class="node"><title>76</title>
<polygon style="fill:none;stroke:black;" points="1633,480 1789,480 1789,444 1633,444 1633,480"/>
<text text-anchor="middle" x="1711" y="459">Marie Victoire belles</text>
<text text-anchor="middle" x="1711" y="475">o 31 DEC 1844</text>
</g>
<g id="edge140" class="edge"><title>188-&gt;76</title>
<path style="fill:none;stroke:black;" d="M1579,397C1603,410 1637,426 1665,440"/>
<polygon style="fill:black;stroke:black;" points="1666,438 1674,444 1664,442 1666,438"/>
</g>
<g id="node44" class="node"><title>319</title>
<ellipse cx="860" cy="990" rx="27" ry="18" style="fill:none;stroke:black;"/>
</g>
<g id="edge24" class="edge"><title>292-&gt;319</title>
<path style="fill:none;stroke:black;" d="M860,936C860,944 860,953 860,962"/>
<polygon style="fill:black;stroke:black;" points="863,962 860,972 858,962 863,962"/>
</g>
<g id="node51" class="node"><title>297</title>
<polygon style="fill:none;stroke:black;" points="733,1080 843,1080 843,1044 733,1044 733,1080"/>
<text text-anchor="middle" x="788" y="1059">Claude astier</text>
<text text-anchor="middle" x="788" y="1075">o 16 JAN 1654</text>
</g>
<g id="edge106" class="edge"><title>319-&gt;297</title>
<path style="fill:none;stroke:black;" d="M845,1005C836,1014 824,1026 813,1037"/>
<polygon style="fill:black;stroke:black;" points="815,1039 806,1044 811,1035 815,1039"/>
</g>
<g id="node54" class="node"><title>299</title>
<polygon style="fill:none;stroke:black;" points="861,1080 1003,1080 1003,1044 861,1044 861,1080"/>
<text text-anchor="middle" x="932" y="1067">Marie ballandraud</text>
</g>
<g id="edge108" class="edge"><title>319-&gt;299</title>
<path style="fill:none;stroke:black;" d="M875,1005C884,1014 896,1026 907,1037"/>
<polygon style="fill:black;stroke:black;" points="909,1035 914,1044 905,1039 909,1035"/>
</g>
<g id="node45" class="node"><title>165</title>
<polygon style="fill:none;stroke:black;" points="2315,56 2494,56 2494,20 2315,20 2315,56"/>
<text text-anchor="middle" x="2404" y="35">Marie Victoire monchal</text>
<text text-anchor="middle" x="2404" y="51">o 10 FEB 1850</text>
</g>
<g id="edge26" class="edge"><title>165-&gt;210</title>
<path style="fill:none;stroke:black;" d="M2363,56C2330,71 2284,91 2251,106"/>
<polygon style="fill:black;stroke:black;" points="2251,109 2241,110 2249,104 2251,109"/>
</g>
<g id="node50" class="node"><title>185</title>
<ellipse cx="1931" cy="382" rx="49" ry="18" style="fill:none;stroke:black;"/>
<text text-anchor="middle" x="1931" y="387">x BEF 1874</text>
</g>
<g id="edge28" class="edge"><title>40-&gt;185</title>
<path style="fill:none;stroke:black;" d="M1788,328C1821,341 1859,355 1889,366"/>
<polygon style="fill:black;stroke:black;" points="1889,363 1897,369 1887,368 1889,363"/>
</g>
<g id="node70" class="node"><title>64</title>
<polygon style="fill:none;stroke:black;" points="1847,480 1994,480 1994,444 1847,444 1847,480"/>
<text text-anchor="middle" x="1920" y="459">Jean Marie gaillard</text>
<text text-anchor="middle" x="1920" y="475">o ABT 1839</text>
</g>
<g id="edge126" class="edge"><title>185-&gt;64</title>
<path style="fill:none;stroke:black;" d="M1929,400C1927,410 1925,423 1923,435"/>
<polygon style="fill:black;stroke:black;" points="1926,434 1922,444 1921,434 1926,434"/>
</g>
<g id="node71" class="node"><title>66</title>
<polygon style="fill:none;stroke:black;" points="2011,480 2066,480 2066,444 2011,444 2011,480"/>
<text text-anchor="middle" x="2038" y="467">Marie</text>
</g>
<g id="edge128" class="edge"><title>185-&gt;66</title>
<path style="fill:none;stroke:black;" d="M1956,398C1972,408 1993,422 2011,436 2011,436 2012,437 2012,437"/>
<polygon style="fill:black;stroke:black;" points="2014,435 2019,444 2010,439 2014,435"/>
</g>
<g id="node53" class="node"><title>320</title>
<ellipse cx="788" cy="1134" rx="50" ry="18" style="fill:none;stroke:black;"/>
<text text-anchor="middle" x="788" y="1139">x BEF 1654</text>
</g>
<g id="edge30" class="edge"><title>297-&gt;320</title>
<path style="fill:none;stroke:black;" d="M788,1080C788,1088 788,1097 788,1106"/>
<polygon style="fill:black;stroke:black;" points="791,1106 788,1116 786,1106 791,1106"/>
</g>
<g id="edge64" class="edge"><title>320-&gt;303</title>
<path style="fill:none;stroke:black;" d="M772,1151C764,1160 754,1171 745,1181"/>
<polygon style="fill:black;stroke:black;" points="747,1182 739,1188 744,1179 747,1182"/>
</g>
<g id="node56" class="node"><title>302</title>
<polygon style="fill:none;stroke:black;" points="792,1224 917,1224 917,1188 792,1188 792,1224"/>
<text text-anchor="middle" x="854" y="1211">François astier</text>
</g>
<g id="edge62" class="edge"><title>320-&gt;302</title>
<path style="fill:none;stroke:black;" d="M804,1151C812,1160 822,1171 831,1181"/>
<polygon style="fill:black;stroke:black;" points="832,1179 837,1188 829,1182 832,1179"/>
</g>
<g id="node58" class="node"><title>326</title>
<ellipse cx="854" cy="1278" rx="27" ry="18" style="fill:none;stroke:black;"/>
</g>
<g id="edge32" class="edge"><title>302-&gt;326</title>
<path style="fill:none;stroke:black;" d="M854,1224C854,1232 854,1241 854,1250"/>
<polygon style="fill:black;stroke:black;" points="857,1250 854,1260 852,1250 857,1250"/>
</g>
<g id="node61" class="node"><title>305</title>
<polygon style="fill:none;stroke:black;" points="744,1368 846,1368 846,1332 744,1332 744,1368"/>
<text text-anchor="middle" x="795" y="1347">Claude astier</text>
<text text-anchor="middle" x="795" y="1363">o ABT 1600</text>
</g>
<g id="edge74" class="edge"><title>326-&gt;305</title>
<path style="fill:none;stroke:black;" d="M841,1294C834,1303 825,1314 816,1324"/>
<polygon style="fill:black;stroke:black;" points="818,1325 810,1332 814,1322 818,1325"/>
</g>
<g id="node62" class="node"><title>307</title>
<polygon style="fill:none;stroke:black;" points="864,1368 965,1368 965,1332 864,1332 864,1368"/>
<text text-anchor="middle" x="914" y="1355">Marie faurie</text>
</g>
<g id="edge76" class="edge"><title>326-&gt;307</title>
<path style="fill:none;stroke:black;" d="M867,1294C875,1303 884,1314 893,1324"/>
<polygon style="fill:black;stroke:black;" points="895,1322 899,1332 891,1325 895,1322"/>
</g>
<g id="node59" class="node"><title>285</title>
<polygon style="fill:none;stroke:black;" points="1100,640 1231,640 1231,604 1100,604 1100,640"/>
<text text-anchor="middle" x="1165" y="627">Catherine perrier</text>
</g>
<g id="node63" class="node"><title>52</title>
<polygon style="fill:none;stroke:black;" points="917,144 1020,144 1020,108 917,108 917,144"/>
<text text-anchor="middle" x="968" y="123">Marius astier</text>
<text text-anchor="middle" x="968" y="139">o ABT 1892</text>
</g>
<g id="edge34" class="edge"><title>52-&gt;327</title>
<path style="fill:none;stroke:black;" d="M992,144C1012,159 1039,180 1059,195"/>
<polygon style="fill:black;stroke:black;" points="1059,192 1066,200 1056,196 1059,192"/>
</g>
<g id="node65" class="node"><title>55</title>
<polygon style="fill:none;stroke:black;" points="2511,64 2656,64 2656,12 2511,12 2511,64"/>
<text text-anchor="middle" x="2583" y="27">Léon maisonnas</text>
<text text-anchor="middle" x="2583" y="43">o ABT 1871</text>
<text text-anchor="middle" x="2583" y="59">+ AFT FEB 1920</text>
</g>
<g id="node66" class="node"><title>59</title>
<polygon style="fill:none;stroke:black;" points="2673,56 2791,56 2791,20 2673,20 2673,56"/>
<text text-anchor="middle" x="2732" y="43">Père mounier</text>
</g>
<g id="node67" class="node"><title>60</title>
<polygon style="fill:none;stroke:black;" points="2809,56 2942,56 2942,20 2809,20 2809,56"/>
<text text-anchor="middle" x="2875" y="35">Romain mounier</text>
<text text-anchor="middle" x="2875" y="51">o ABT 1833</text>
</g>
<g id="node68" class="node"><title>266</title>
<polygon style="fill:none;stroke:black;" points="2959,56 3060,56 3060,20 2959,20 2959,56"/>
<text text-anchor="middle" x="3009" y="43">Joseph bayle</text>
</g>
<g id="node69" class="node"><title>62</title>
<polygon style="fill:none;stroke:black;" points="3077,56 3200,56 3200,20 3077,20 3077,56"/>
<text text-anchor="middle" x="3138" y="35">Joseph mounier</text>
<text text-anchor="middle" x="3138" y="51">o ABT 1836</text>
</g>
<g id="node73" class="node"><title>206</title>
<ellipse cx="2038" cy="542" rx="50" ry="18" style="fill:none;stroke:black;"/>
<text text-anchor="middle" x="2038" y="547">x BEF 1844</text>
</g>
<g id="edge36" class="edge"><title>66-&gt;206</title>
<path style="fill:none;stroke:black;" d="M2038,480C2038,490 2038,503 2038,514"/>
<polygon style="fill:black;stroke:black;" points="2041,514 2038,524 2036,514 2041,514"/>
</g>
<g id="edge98" class="edge"><title>206-&gt;146</title>
<path style="fill:none;stroke:black;" d="M2037,560C2036,570 2035,583 2035,595"/>
<polygon style="fill:black;stroke:black;" points="2038,594 2034,604 2033,594 2038,594"/>
</g>
<g id="edge100" class="edge"><title>206-&gt;148</title>
<path style="fill:none;stroke:black;" d="M2073,555C2100,566 2140,581 2174,596 2176,597 2179,598 2181,599"/>
<polygon style="fill:black;stroke:black;" points="2182,597 2190,604 2180,601 2182,597"/>
</g>
<g id="node74" class="node"><title>70</title>
<polygon style="fill:none;stroke:black;" points="811,320 933,320 933,284 811,284 811,320"/>
<text text-anchor="middle" x="872" y="299">Joseph dantony</text>
<text text-anchor="middle" x="872" y="315">o ABT 1866</text>
</g>
<g id="edge38" class="edge"><title>70-&gt;179</title>
<path style="fill:none;stroke:black;" d="M872,320C872,330 872,343 872,354"/>
<polygon style="fill:black;stroke:black;" points="875,354 872,364 870,354 875,354"/>
</g>
<g id="node78" class="node"><title>191</title>
<ellipse cx="1548" cy="542" rx="62" ry="18" style="fill:none;stroke:black;"/>
<text text-anchor="middle" x="1548" y="547">x 23 NOV 1841</text>
</g>
<g id="edge40" class="edge"><title>73-&gt;191</title>
<path style="fill:none;stroke:black;" d="M1548,480C1548,490 1548,503 1548,514"/>
<polygon style="fill:black;stroke:black;" points="1551,514 1548,524 1546,514 1551,514"/>
</g>
<g id="node85" class="node"><title>85</title>
<polygon style="fill:none;stroke:black;" points="1248,648 1440,648 1440,596 1248,596 1248,648"/>
<text text-anchor="middle" x="1344" y="611">Jean Pierre Julien chalaye</text>
<text text-anchor="middle" x="1344" y="627">o ABT 1814</text>
<text text-anchor="middle" x="1344" y="643">+ AFT 1871</text>
</g>
<g id="edge142" class="edge"><title>191-&gt;85</title>
<path style="fill:none;stroke:black;" d="M1511,556C1485,566 1450,580 1419,593"/>
<polygon style="fill:black;stroke:black;" points="1421,595 1411,596 1419,590 1421,595"/>
</g>
<g id="node88" class="node"><title>89</title>
<polygon style="fill:none;stroke:black;" points="1458,648 1641,648 1641,596 1458,596 1458,648"/>
<text text-anchor="middle" x="1549" y="611">Marie Julie Gustine astic</text>
<text text-anchor="middle" x="1549" y="627">o ABT 1817</text>
<text text-anchor="middle" x="1549" y="643">+ AFT 1871</text>
</g>
<g id="edge144" class="edge"><title>191-&gt;89</title>
<path style="fill:none;stroke:black;" d="M1548,560C1548,568 1549,578 1549,587"/>
<polygon style="fill:black;stroke:black;" points="1552,586 1549,596 1547,586 1552,586"/>
</g>
<g id="node81" class="node"><title>194</title>
<ellipse cx="1726" cy="542" rx="27" ry="18" style="fill:none;stroke:black;"/>
</g>
<g id="edge42" class="edge"><title>76-&gt;194</title>
<path style="fill:none;stroke:black;" d="M1714,480C1716,490 1719,503 1721,515"/>
<polygon style="fill:black;stroke:black;" points="1723,514 1723,524 1718,515 1723,514"/>
</g>
<g id="node91" class="node"><title>94</title>
<polygon style="fill:none;stroke:black;" points="1658,640 1795,640 1795,604 1658,604 1658,640"/>
<text text-anchor="middle" x="1726" y="619">Emmanuel baylle</text>
<text text-anchor="middle" x="1726" y="635">o ABT 1812</text>
</g>
<g id="edge66" class="edge"><title>194-&gt;94</title>
<path style="fill:none;stroke:black;" d="M1726,560C1726,570 1726,583 1726,594"/>
<polygon style="fill:black;stroke:black;" points="1729,594 1726,604 1724,594 1729,594"/>
</g>
<g id="node92" class="node"><title>98</title>
<polygon style="fill:none;stroke:black;" points="1812,640 1892,640 1892,604 1812,604 1812,640"/>
<text text-anchor="middle" x="1852" y="627">Catherine</text>
</g>
<g id="edge68" class="edge"><title>194-&gt;98</title>
<path style="fill:none;stroke:black;" d="M1746,554C1763,565 1789,582 1812,596 1814,597 1815,598 1817,599"/>
<polygon style="fill:black;stroke:black;" points="1817,596 1824,604 1814,600 1817,596"/>
</g>
<g id="node83" class="node"><title>82</title>
<polygon style="fill:none;stroke:black;" points="1855,320 2020,320 2020,284 1855,284 1855,320"/>
<text text-anchor="middle" x="1937" y="299">Jules Régis gaillard</text>
<text text-anchor="middle" x="1937" y="315">o 2 JAN 1878</text>
</g>
<g id="edge44" class="edge"><title>82-&gt;185</title>
<path style="fill:none;stroke:black;" d="M1936,320C1935,330 1934,343 1933,355"/>
<polygon style="fill:black;stroke:black;" points="1936,354 1932,364 1931,354 1936,354"/>
</g>
<g id="node87" class="node"><title>198</title>
<ellipse cx="1344" cy="702" rx="48" ry="18" style="fill:none;stroke:black;"/>
<text text-anchor="middle" x="1344" y="707">x BEF 1814</text>
</g>
<g id="edge46" class="edge"><title>85-&gt;198</title>
<path style="fill:none;stroke:black;" d="M1344,648C1344,657 1344,666 1344,674"/>
<polygon style="fill:black;stroke:black;" points="1347,674 1344,684 1342,674 1347,674"/>
</g>
<g id="node100" class="node"><title>110</title>
<polygon style="fill:none;stroke:black;" points="1189,792 1367,792 1367,756 1189,756 1189,792"/>
<text text-anchor="middle" x="1278" y="779">Joseph Régis chalaye</text>
</g>
<g id="edge78" class="edge"><title>198-&gt;110</title>
<path style="fill:none;stroke:black;" d="M1328,719C1320,728 1310,739 1301,749"/>
<polygon style="fill:black;stroke:black;" points="1303,751 1294,756 1299,747 1303,751"/>
</g>
<g id="node101" class="node"><title>111</title>
<polygon style="fill:none;stroke:black;" points="1385,792 1570,792 1570,756 1385,756 1385,792"/>
<text text-anchor="middle" x="1477" y="779">Marie Magdeleine thiery</text>
</g>
<g id="edge80" class="edge"><title>198-&gt;111</title>
<path style="fill:none;stroke:black;" d="M1372,717C1390,727 1414,740 1435,751"/>
<polygon style="fill:black;stroke:black;" points="1436,749 1444,756 1434,753 1436,749"/>
</g>
<g id="node90" class="node"><title>195</title>
<ellipse cx="2358" cy="702" rx="47" ry="18" style="fill:none;stroke:black;"/>
<text text-anchor="middle" x="2358" y="707">x BEF 1815</text>
</g>
<g id="edge48" class="edge"><title>89-&gt;195</title>
<path style="fill:none;stroke:black;" d="M1641,648C1767,670 2156,692 2301,699"/>
<polygon style="fill:black;stroke:black;" points="2301,697 2311,700 2301,701 2301,697"/>
</g>
<g id="node93" class="node"><title>101</title>
<polygon style="fill:none;stroke:black;" points="2231,792 2325,792 2325,756 2231,756 2231,792"/>
<text text-anchor="middle" x="2278" y="771">Joseph astic</text>
<text text-anchor="middle" x="2278" y="787">o ABT 1789</text>
</g>
<g id="edge70" class="edge"><title>195-&gt;101</title>
<path style="fill:none;stroke:black;" d="M2339,719C2329,728 2317,740 2305,750"/>
<polygon style="fill:black;stroke:black;" points="2307,751 2298,756 2304,748 2307,751"/>
</g>
<g id="node97" class="node"><title>104</title>
<polygon style="fill:none;stroke:black;" points="2343,792 2532,792 2532,756 2343,756 2343,792"/>
<text text-anchor="middle" x="2437" y="779">Marie Catherine fournier</text>
</g>
<g id="edge72" class="edge"><title>195-&gt;104</title>
<path style="fill:none;stroke:black;" d="M2376,719C2387,728 2399,740 2410,750"/>
<polygon style="fill:black;stroke:black;" points="2411,748 2417,756 2408,751 2411,748"/>
</g>
<g id="node96" class="node"><title>314</title>
<ellipse cx="1165" cy="542" rx="27" ry="18" style="fill:none;stroke:black;"/>
</g>
<g id="edge50" class="edge"><title>276-&gt;314</title>
<path style="fill:none;stroke:black;" d="M1165,488C1165,497 1165,506 1165,514"/>
<polygon style="fill:black;stroke:black;" points="1168,514 1165,524 1163,514 1168,514"/>
</g>
<g id="edge130" class="edge"><title>314-&gt;283</title>
<path style="fill:none;stroke:black;" d="M1145,554C1125,567 1094,585 1069,599"/>
<polygon style="fill:black;stroke:black;" points="1071,601 1061,604 1068,597 1071,601"/>
</g>
<g id="edge132" class="edge"><title>314-&gt;285</title>
<path style="fill:none;stroke:black;" d="M1165,560C1165,570 1165,583 1165,594"/>
<polygon style="fill:black;stroke:black;" points="1168,594 1165,604 1163,594 1168,594"/>
</g>
<g id="node98" class="node"><title>106</title>
<polygon style="fill:none;stroke:black;" points="2296,640 2421,640 2421,604 2296,604 2296,640"/>
<text text-anchor="middle" x="2358" y="619">Jean Marie astic</text>
<text text-anchor="middle" x="2358" y="635">o ABT 1815</text>
</g>
<g id="edge52" class="edge"><title>106-&gt;195</title>
<path style="fill:none;stroke:black;" d="M2358,640C2358,650 2358,663 2358,674"/>
<polygon style="fill:black;stroke:black;" points="2361,674 2358,684 2356,674 2361,674"/>
</g>
<g id="node102" class="node"><title>113</title>
<polygon style="fill:none;stroke:black;" points="2438,640 2531,640 2531,604 2438,604 2438,640"/>
<text text-anchor="middle" x="2484" y="619">Julien astic</text>
<text text-anchor="middle" x="2484" y="635">o ABT 1828</text>
</g>
<g id="edge54" class="edge"><title>113-&gt;195</title>
<path style="fill:none;stroke:black;" d="M2455,640C2436,652 2410,669 2390,681"/>
<polygon style="fill:black;stroke:black;" points="2393,682 2383,686 2390,678 2393,682"/>
</g>
<g id="node104" class="node"><title>116</title>
<polygon style="fill:none;stroke:black;" points="1037,152 1132,152 1132,100 1037,100 1037,152"/>
<text text-anchor="middle" x="1084" y="115">Marie astier</text>
<text text-anchor="middle" x="1084" y="131">o BEF 1892</text>
<text text-anchor="middle" x="1084" y="147">+ AFT 1980</text>
</g>
<g id="edge56" class="edge"><title>116-&gt;327</title>
<path style="fill:none;stroke:black;" d="M1084,152C1084,163 1084,175 1084,187"/>
<polygon style="fill:black;stroke:black;" points="1087,186 1084,196 1082,186 1087,186"/>
</g>
<g id="node106" class="node"><title>117</title>
<polygon style="fill:none;stroke:black;" points="1149,152 1248,152 1248,100 1149,100 1149,152"/>
<text text-anchor="middle" x="1198" y="115">Louise astier</text>
<text text-anchor="middle" x="1198" y="131">o AFT 1900</text>
<text text-anchor="middle" x="1198" y="147">+ ABT 1997</text>
</g>
<g id="edge58" class="edge"><title>117-&gt;327</title>
<path style="fill:none;stroke:black;" d="M1164,152C1147,166 1125,182 1109,195"/>
<polygon style="fill:black;stroke:black;" points="1112,196 1102,200 1109,192 1112,196"/>
</g>
<g id="node108" class="node"><title>119</title>
<polygon style="fill:none;stroke:black;" points="481,56 669,56 669,20 481,20 481,56"/>
<text text-anchor="middle" x="575" y="35">Marie Augustine chalaye</text>
<text text-anchor="middle" x="575" y="51">o 17 MAY 1875</text>
</g>
<g id="edge60" class="edge"><title>119-&gt;201</title>
<path style="fill:none;stroke:black;" d="M531,56C493,72 439,94 401,109"/>
<polygon style="fill:black;stroke:black;" points="403,111 393,113 401,106 403,111"/>
</g>
<g id="node122" class="node"><title>167</title>
<ellipse cx="1447" cy="38" rx="58" ry="18" style="fill:none;stroke:black;"/>
<text text-anchor="middle" x="1447" y="43">x 12 FEB 1920</text>
</g>
<g id="edge82" class="edge"><title>167-&gt;10</title>
<path style="fill:none;stroke:black;" d="M1427,55C1415,66 1398,80 1383,93"/>
<polygon style="fill:black;stroke:black;" points="1385,95 1376,100 1381,91 1385,95"/>
</g>
<g id="edge84" class="edge"><title>167-&gt;19</title>
<path style="fill:none;stroke:black;" d="M1466,55C1478,66 1494,80 1509,93"/>
<polygon style="fill:black;stroke:black;" points="1511,91 1516,100 1507,95 1511,91"/>
</g>
<g id="node129" class="node"><title>204</title>
<ellipse cx="736" cy="38" rx="49" ry="18" style="fill:none;stroke:black;"/>
<text text-anchor="middle" x="736" y="43">x BEF 1863</text>
</g>
<g id="edge94" class="edge"><title>204-&gt;137</title>
<path style="fill:none;stroke:black;" d="M717,55C702,68 682,87 666,102"/>
<polygon style="fill:black;stroke:black;" points="668,103 659,108 665,100 668,103"/>
</g>
<g id="edge96" class="edge"><title>204-&gt;140</title>
<path style="fill:none;stroke:black;" d="M755,55C770,68 790,87 806,102"/>
<polygon style="fill:black;stroke:black;" points="807,100 813,108 804,103 807,100"/>
</g>
</g></svg>
