<?xml version="1.0" encoding="UTF-8"?>
<!DOCTYPE svg PUBLIC "-//W3C//DTD SVG 1.1//EN" 
         "http://www.w3.org/Graphics/SVG/1.1/DTD/svg11.dtd">
<svg xmlns="http://www.w3.org/2000/svg" width="68cm" height="54cm" viewBox="1 -15 68 54"><rect style="fill: #ffffff" x="19" y="5.05" width="14.1" height="1.4"/><rect style="fill: none; stroke-width: 0.1; stroke: #000000" x="19" y="5.05" width="14.1" height="1.4"/><text style="fill: #000000; text-align: center; font-size: 1" x="26.05" y="6.05">Individu</text><rect style="fill: #ffffff" x="19" y="6.45" width="14.1" height="14.6"/><rect style="fill: none; stroke-width: 0.1; stroke: #000000" x="19" y="6.45" width="14.1" height="14.6"/><text style="fill: #000000; text-align: left; font-size: 1" x="19.15" y="7.25">+id: Int</text><text style="fill: #000000; text-align: left; font-size: 1" x="19.15" y="8.05">+idPère: Int</text><text style="fill: #000000; text-align: left; font-size: 1" x="19.15" y="8.85">+idMère: Int</text><text style="fill: #000000; text-align: left; font-size: 1" x="19.15" y="9.65">+idNom: Int</text><text style="fill: #000000; text-align: left; font-size: 1" x="19.15" y="10.45">+prénom: String</text><text style="fill: #000000; text-align: left; font-size: 1" x="19.15" y="11.25">+profession: String</text><text style="fill: #000000; text-align: left; font-size: 1" x="19.15" y="12.05">+genre: Char</text><text style="fill: #000000; text-align: left; font-size: 1" x="19.15" y="12.85">+note: String</text><text style="fill: #000000; text-align: left; font-size: 1" x="19.15" y="13.65">+numéro: String</text><text style="fill: #000000; text-align: left; font-size: 1" x="19.15" y="14.45">+champs: Array[10 * String]</text><text style="fill: #000000; text-align: left; font-size: 1" x="19.15" y="15.25">+sansDescendance: Boolean</text><text style="fill: #000000; text-align: left; font-size: 1" x="19.15" y="16.05">+signature: Int</text><text style="fill: #000000; text-align: left; font-size: 1" x="19.15" y="16.85">+enfant: Int</text><text style="fill: #000000; text-align: left; font-size: 1" x="19.15" y="17.65">+marqué: Boolean</text><text style="fill: #000000; text-align: left; font-size: 1" x="19.15" y="18.45">+confidentiel: Boolean</text><text style="fill: #000000; text-align: left; font-size: 1" x="19.15" y="19.25">+suffixe: String</text><text style="fill: #000000; text-align: left; font-size: 1" x="19.15" y="20.05">+surnom: String</text><text style="fill: #000000; text-align: left; font-size: 1" x="19.15" y="20.85">+titre: String</text><rect style="fill: #ffffff" x="1.35" y="5" width="10.6" height="1.4"/><rect style="fill: none; stroke-width: 0.1; stroke: #000000" x="1.35" y="5" width="10.6" height="1.4"/><text style="fill: #000000; text-align: center; font-size: 1" x="6.65" y="6">Nom</text><rect style="fill: #ffffff" x="1.35" y="6.4" width="10.6" height="2.6"/><rect style="fill: none; stroke-width: 0.1; stroke: #000000" x="1.35" y="6.4" width="10.6" height="2.6"/><text style="fill: #000000; text-align: left; font-size: 1" x="1.5" y="7.2">+id: Int</text><text style="fill: #000000; text-align: left; font-size: 1" x="1.5" y="8">+nomPrincipalId: Int</text><text style="fill: #000000; text-align: left; font-size: 1" x="1.5" y="8.8">+nom: String</text><polyline style="fill: none; stroke-width: 0.1; stroke: #000000" points="11.95,6.9 11.95,6.9 19,6.9 19,9.35 "/><text style="fill: #000000; text-align: center; font-size: 1" x="15.475" y="6.9">idNom</text><polyline style="fill: #000000" points="14.025,6.9 14.025,6.5 13.625,6.7 "/><text style="fill: #000000; text-align: left; font-size: 1" x="11.95" y="6.9"></text><text style="fill: #000000; text-align: left; font-size: 1" x="11.95" y="7.7"></text><text style="fill: #000000; text-align: left; font-size: 1" x="19" y="7.75"></text><text style="fill: #000000; text-align: left; font-size: 1" x="19" y="8.55"></text><rect style="fill: #ffffff" x="42.65" y="4.75" width="7.1" height="1.4"/><rect style="fill: none; stroke-width: 0.1; stroke: #000000" x="42.65" y="4.75" width="7.1" height="1.4"/><text style="fill: #000000; text-align: center; font-size: 1" x="46.2" y="5.75">Union</text><rect style="fill: #ffffff" x="42.65" y="6.15" width="7.1" height="3.4"/><rect style="fill: none; stroke-width: 0.1; stroke: #000000" x="42.65" y="6.15" width="7.1" height="3.4"/><text style="fill: #000000; text-align: left; font-size: 1" x="42.8" y="6.95">+id: Int</text><text style="fill: #000000; text-align: left; font-size: 1" x="42.8" y="7.75">+mariId: Int</text><text style="fill: #000000; text-align: left; font-size: 1" x="42.8" y="8.55">+femmeId: Int</text><text style="fill: #000000; text-align: left; font-size: 1" x="42.8" y="9.35">+note: String</text><polyline style="fill: none; stroke-width: 0.1; stroke: #000000" points="42.65,8.25 42.65,8.405 33.1,8.405 33.1,21.05 "/><text style="fill: #000000; text-align: center; font-size: 1" x="37.875" y="8.405">mariId</text><polyline style="fill: #000000" points="36.175,8.405 36.175,8.005 35.775,8.205 "/><polyline style="fill: none; stroke-width: 0.1; stroke: #000000" points="42.65,8.25 42.65,7.005 33.1,7.005 33.1,21.05 "/><text style="fill: #000000; text-align: center; font-size: 1" x="37.875" y="7.005">femmeId</text><polyline style="fill: #000000" points="35.925,7.005 35.925,6.605 35.525,6.805 "/><rect style="fill: #ffffff" x="4.9501" y="24.3" width="15.1" height="1.4"/><rect style="fill: none; stroke-width: 0.1; stroke: #000000" x="4.9501" y="24.3" width="15.1" height="1.4"/><text style="fill: #000000; text-align: center; font-size: 1" x="12.5001" y="25.3">Adresse</text><rect style="fill: #ffffff" x="4.9501" y="25.7" width="15.1" height="13"/><rect style="fill: none; stroke-width: 0.1; stroke: #000000" x="4.9501" y="25.7" width="15.1" height="13"/><text style="fill: #000000; text-align: left; font-size: 1" x="5.1001" y="26.5">+id: Int</text><text style="fill: #000000; text-align: left; font-size: 1" x="5.1001" y="27.3">+unionId: Int</text><text style="fill: #000000; text-align: left; font-size: 1" x="5.1001" y="28.1">+mariId: Int</text><text style="fill: #000000; text-align: left; font-size: 1" x="5.1001" y="28.9">+femmeId: Int</text><text style="fill: #000000; text-align: left; font-size: 1" x="5.1001" y="29.7">+informationsPrivées: Boolean</text><text style="fill: #000000; text-align: left; font-size: 1" x="5.1001" y="30.5">+contact: String</text><text style="fill: #000000; text-align: left; font-size: 1" x="5.1001" y="31.3">+adresseLigne1: String</text><text style="fill: #000000; text-align: left; font-size: 1" x="5.1001" y="32.1">+adresseLigne2: String</text><text style="fill: #000000; text-align: left; font-size: 1" x="5.1001" y="32.9">+region: String</text><text style="fill: #000000; text-align: left; font-size: 1" x="5.1001" y="33.7">+codePostal: String</text><text style="fill: #000000; text-align: left; font-size: 1" x="5.1001" y="34.5">+ville: String</text><text style="fill: #000000; text-align: left; font-size: 1" x="5.1001" y="35.3">+pays: String</text><text style="fill: #000000; text-align: left; font-size: 1" x="5.1001" y="36.1">+téléphone: String</text><text style="fill: #000000; text-align: left; font-size: 1" x="5.1001" y="36.9">+fax: String</text><text style="fill: #000000; text-align: left; font-size: 1" x="5.1001" y="37.7">+email: String</text><text style="fill: #000000; text-align: left; font-size: 1" x="5.1001" y="38.5">+page Web: String</text><polyline style="fill: none; stroke-width: 0.1; stroke: #000000" points="20.0501,27.8 20.0501,27.85 26.05,27.85 26.05,21.05 "/><text style="fill: #000000; text-align: center; font-size: 1" x="23.05" y="27.85">mariId</text><polyline style="fill: #000000" points="24.6501,27.85 24.6501,27.45 25.05,27.65 "/><text style="fill: #000000; text-align: left; font-size: 1" x="20.0501" y="27.8"></text><text style="fill: #000000; text-align: left; font-size: 1" x="20.0501" y="28.6"></text><text style="fill: #000000; text-align: left; font-size: 1" x="26.05" y="21.05"></text><text style="fill: #000000; text-align: left; font-size: 1" x="26.05" y="21.85"></text><polyline style="fill: none; stroke-width: 0.1; stroke: #000000" points="20.0501,28.6 20.0501,28.6 26.05,28.6 26.05,21.05 "/><text style="fill: #000000; text-align: center; font-size: 1" x="23.05" y="28.6">femmeId</text><polyline style="fill: #000000" points="24.9001,28.6 24.9001,28.2 25.3,28.4 "/><text style="fill: #000000; text-align: left; font-size: 1" x="20.0501" y="28.6"></text><text style="fill: #000000; text-align: left; font-size: 1" x="20.0501" y="29.4"></text><text style="fill: #000000; text-align: left; font-size: 1" x="26.05" y="21.05"></text><text style="fill: #000000; text-align: left; font-size: 1" x="26.05" y="21.85"></text><rect style="fill: #ffffff" x="55.4082" y="5.9218" width="13.1" height="1.4"/><rect style="fill: none; stroke-width: 0.1; stroke: #000000" x="55.4082" y="5.9218" width="13.1" height="1.4"/><text style="fill: #000000; text-align: center; font-size: 1" x="61.9582" y="6.9218">Evenement</text><rect style="fill: #ffffff" x="55.4082" y="7.3218" width="13.1" height="17.8"/><rect style="fill: none; stroke-width: 0.1; stroke: #000000" x="55.4082" y="7.3218" width="13.1" height="17.8"/><text style="fill: #000000; text-align: left; font-size: 1" x="55.5582" y="8.1218">+id: Int</text><text style="fill: #000000; text-align: left; font-size: 1" x="55.5582" y="8.9218">+itemId: Int</text><text style="fill: #000000; text-align: left; font-size: 1" x="55.5582" y="9.7218">+type: Int</text><text style="fill: #000000; text-align: left; font-size: 1" x="55.5582" y="10.5218">+lieuId: Int</text><text style="fill: #000000; text-align: left; font-size: 1" x="55.5582" y="11.3218">+subdivision: String</text><text style="fill: #000000; text-align: left; font-size: 1" x="55.5582" y="12.1218">+nomEvenement: String</text><text style="fill: #000000; text-align: left; font-size: 1" x="55.5582" y="12.9218">+acteARechercher: Boolean</text><text style="fill: #000000; text-align: left; font-size: 1" x="55.5582" y="13.7218">+note: String</text><text style="fill: #000000; text-align: left; font-size: 1" x="55.5582" y="14.5218">+calendrier1: Int</text><text style="fill: #000000; text-align: left; font-size: 1" x="55.5582" y="15.3218">+calendrier2: Int</text><text style="fill: #000000; text-align: left; font-size: 1" x="55.5582" y="16.1218">+modif1: Int</text><text style="fill: #000000; text-align: left; font-size: 1" x="55.5582" y="16.9218">+modif2: Int</text><text style="fill: #000000; text-align: left; font-size: 1" x="55.5582" y="17.7218">+jour1: Int</text><text style="fill: #000000; text-align: left; font-size: 1" x="55.5582" y="18.5218">+jour2: Int</text><text style="fill: #000000; text-align: left; font-size: 1" x="55.5582" y="19.3218">+mois1: Int</text><text style="fill: #000000; text-align: left; font-size: 1" x="55.5582" y="20.1218">+mois2: Int</text><text style="fill: #000000; text-align: left; font-size: 1" x="55.5582" y="20.9218">+partie_année1: Int</text><text style="fill: #000000; text-align: left; font-size: 1" x="55.5582" y="21.7218">+selecteurAnnée1: Int</text><text style="fill: #000000; text-align: left; font-size: 1" x="55.5582" y="22.5218">+partie_année2: Int</text><text style="fill: #000000; text-align: left; font-size: 1" x="55.5582" y="23.3218">+selecteurAnnée2: Int</text><text style="fill: #000000; text-align: left; font-size: 1" x="55.5582" y="24.1218">+heure: Int</text><text style="fill: #000000; text-align: left; font-size: 1" x="55.5582" y="24.9218">+minute: Int</text><polyline style="fill: none; stroke-width: 0.1; stroke: #000000" points="33.1,5.75 33.1,16.205 55.4082,16.205 55.4082,8.6218 "/><text style="fill: #000000; text-align: center; font-size: 1" x="44.2541" y="16.205">itemId</text><polyline style="fill: #000000" points="42.5541,16.205 42.5541,15.805 42.1541,16.005 "/><text style="fill: #000000; text-align: left; font-size: 1" x="33.1" y="5.75"></text><text style="fill: #000000; text-align: left; font-size: 1" x="33.1" y="6.55"></text><text style="fill: #000000; text-align: left; font-size: 1" x="55.4082" y="8.6218"></text><text style="fill: #000000; text-align: left; font-size: 1" x="55.4082" y="9.4218"></text><polyline style="fill: none; stroke-width: 0.1; stroke: #000000" points="49.75,5.45 49.75,8.8 55.4082,8.8 55.4082,8.6218 "/><text style="fill: #000000; text-align: center; font-size: 1" x="52.5791" y="8.8">itemId</text><polyline style="fill: #000000" points="50.8791,8.8 50.8791,8.4 50.4791,8.6 "/><text style="fill: #000000; text-align: left; font-size: 1" x="49.75" y="5.45"></text><text style="fill: #000000; text-align: left; font-size: 1" x="49.75" y="6.25"></text><text style="fill: #000000; text-align: left; font-size: 1" x="55.4082" y="8.6218"></text><text style="fill: #000000; text-align: left; font-size: 1" x="55.4082" y="9.4218"></text><rect style="fill: #ffffff" x="1.36389" y="-14.645" width="10.6" height="1.4"/><rect style="fill: none; stroke-width: 0.1; stroke: #000000" x="1.36389" y="-14.645" width="10.6" height="1.4"/><text style="fill: #000000; text-align: center; font-size: 1" x="6.66389" y="-13.645">Media</text><rect style="fill: #ffffff" x="1.36389" y="-13.245" width="10.6" height="5.8"/><rect style="fill: none; stroke-width: 0.1; stroke: #000000" x="1.36389" y="-13.245" width="10.6" height="5.8"/><text style="fill: #000000; text-align: left; font-size: 1" x="1.51389" y="-12.445">+id: Int</text><text style="fill: #000000; text-align: left; font-size: 1" x="1.51389" y="-11.645">+repertoire: String</text><text style="fill: #000000; text-align: left; font-size: 1" x="1.51389" y="-10.845">+nomFichier: String</text><text style="fill: #000000; text-align: left; font-size: 1" x="1.51389" y="-10.045">+commentaire: String</text><text style="fill: #000000; text-align: left; font-size: 1" x="1.51389" y="-9.245">+partieAnnée: Int</text><text style="fill: #000000; text-align: left; font-size: 1" x="1.51389" y="-8.445">+selecteurAnnée: Int</text><text style="fill: #000000; text-align: left; font-size: 1" x="1.51389" y="-7.645">+miniatureJPEG: Raw</text><polyline style="fill: none; stroke-width: 0.1; stroke: #000000" points="20.0501,27 20.0501,29.2759 46.2,29.2759 46.2,9.55 "/><text style="fill: #000000; text-align: center; font-size: 1" x="33.1251" y="29.2759">unionId</text><polyline style="fill: #000000" points="34.9751,29.2759 34.9751,28.8759 35.3751,29.0759 "/><text style="fill: #000000; text-align: left; font-size: 1" x="20.0501" y="27"></text><text style="fill: #000000; text-align: left; font-size: 1" x="20.0501" y="27.8"></text><text style="fill: #000000; text-align: left; font-size: 1" x="46.2" y="9.55"></text><text style="fill: #000000; text-align: left; font-size: 1" x="46.2" y="10.35"></text><rect style="fill: #ffffff" x="13.282" y="-5.51465" width="10.1" height="1.4"/><rect style="fill: none; stroke-width: 0.1; stroke: #000000" x="13.282" y="-5.51465" width="10.1" height="1.4"/><text style="fill: #000000; text-align: center; font-size: 1" x="18.332" y="-4.51465">LinkMedia</text><rect style="fill: #ffffff" x="13.282" y="-4.11465" width="10.1" height="3.4"/><rect style="fill: none; stroke-width: 0.1; stroke: #000000" x="13.282" y="-4.11465" width="10.1" height="3.4"/><text style="fill: #000000; text-align: left; font-size: 1" x="13.432" y="-3.31465">+id: Int</text><text style="fill: #000000; text-align: left; font-size: 1" x="13.432" y="-2.51465">+itemId: Int</text><text style="fill: #000000; text-align: left; font-size: 1" x="13.432" y="-1.71465">+mediaId: Int</text><text style="fill: #000000; text-align: left; font-size: 1" x="13.432" y="-0.91465">+principal: Boolean</text><polyline style="fill: none; stroke-width: 0.1; stroke: #000000" points="6.66389,-7.44501 6.66389,-6.295 18.332,-6.295 18.332,-5.51465 "/><text style="fill: #000000; text-align: center; font-size: 1" x="12.4979" y="-6.295">mediaId</text><polyline style="fill: #000000" points="10.5479,-6.295 10.5479,-6.695 10.1479,-6.495 "/><text style="fill: #000000; text-align: left; font-size: 1" x="6.66389" y="-7.44501"></text><text style="fill: #000000; text-align: left; font-size: 1" x="6.66389" y="-6.64501"></text><text style="fill: #000000; text-align: left; font-size: 1" x="18.332" y="-7.11465"></text><text style="fill: #000000; text-align: left; font-size: 1" x="18.332" y="-6.31465"></text><rect style="fill: #ffffff" x="41.7809" y="-14.8875" width="9.6" height="1.4"/><rect style="fill: none; stroke-width: 0.1; stroke: #000000" x="41.7809" y="-14.8875" width="9.6" height="1.4"/><text style="fill: #000000; text-align: center; font-size: 1" x="46.5809" y="-13.8875">Source</text><rect style="fill: #ffffff" x="41.7809" y="-13.4875" width="9.6" height="6.6"/><rect style="fill: none; stroke-width: 0.1; stroke: #000000" x="41.7809" y="-13.4875" width="9.6" height="6.6"/><text style="fill: #000000; text-align: left; font-size: 1" x="41.9309" y="-12.6875">+id: Int</text><text style="fill: #000000; text-align: left; font-size: 1" x="41.9309" y="-11.8875">+nom: String</text><text style="fill: #000000; text-align: left; font-size: 1" x="41.9309" y="-11.0875">+origine: String</text><text style="fill: #000000; text-align: left; font-size: 1" x="41.9309" y="-10.2875">+document: String</text><text style="fill: #000000; text-align: left; font-size: 1" x="41.9309" y="-9.4875">+cote: String</text><text style="fill: #000000; text-align: left; font-size: 1" x="41.9309" y="-8.6875">+archivage: String</text><text style="fill: #000000; text-align: left; font-size: 1" x="41.9309" y="-7.8875">+nature: Int</text><text style="fill: #000000; text-align: left; font-size: 1" x="41.9309" y="-7.0875">+note: String</text><rect style="fill: #ffffff" x="59.1575" y="-5.55899" width="9.1" height="1.4"/><rect style="fill: none; stroke-width: 0.1; stroke: #000000" x="59.1575" y="-5.55899" width="9.1" height="1.4"/><text style="fill: #000000; text-align: center; font-size: 1" x="63.7075" y="-4.55899">LinkSource</text><rect style="fill: #ffffff" x="59.1575" y="-4.15899" width="9.1" height="3.4"/><rect style="fill: none; stroke-width: 0.1; stroke: #000000" x="59.1575" y="-4.15899" width="9.1" height="3.4"/><text style="fill: #000000; text-align: left; font-size: 1" x="59.3075" y="-3.35899">+id: Int</text><text style="fill: #000000; text-align: left; font-size: 1" x="59.3075" y="-2.55899">+sourceId: Int</text><text style="fill: #000000; text-align: left; font-size: 1" x="59.3075" y="-1.75899">+évènementId: Int</text><text style="fill: #000000; text-align: left; font-size: 1" x="59.3075" y="-0.95899">+note: String</text><polyline style="fill: none; stroke-width: 0.1; stroke: #000000" points="46.5809,-6.8875 46.5809,-3.895 59.1575,-3.895 59.1575,-3.65899 "/><text style="fill: #000000; text-align: center; font-size: 1" x="52.8692" y="-3.895">sourceId</text><polyline style="fill: #000000" points="50.6692,-3.895 50.6692,-4.295 50.2692,-4.095 "/><text style="fill: #000000; text-align: left; font-size: 1" x="46.5809" y="-6.8875"></text><text style="fill: #000000; text-align: left; font-size: 1" x="46.5809" y="-6.0875"></text><text style="fill: #000000; text-align: left; font-size: 1" x="59.1575" y="-5.25899"></text><text style="fill: #000000; text-align: left; font-size: 1" x="59.1575" y="-4.45899"></text><rect style="fill: #ffffff" x="31.8487" y="-7.49539" width="8.1" height="1.4"/><rect style="fill: none; stroke-width: 0.1; stroke: #000000" x="31.8487" y="-7.49539" width="8.1" height="1.4"/><text style="fill: #000000; text-align: center; font-size: 1" x="35.8987" y="-6.49539">Lien</text><rect style="fill: #ffffff" x="31.8487" y="-6.09539" width="8.1" height="3.4"/><rect style="fill: none; stroke-width: 0.1; stroke: #000000" x="31.8487" y="-6.09539" width="8.1" height="3.4"/><text style="fill: #000000; text-align: left; font-size: 1" x="31.9987" y="-5.29539">+id: Int</text><text style="fill: #000000; text-align: left; font-size: 1" x="31.9987" y="-4.49539">+origineId: Int</text><text style="fill: #000000; text-align: left; font-size: 1" x="31.9987" y="-3.69539">+indiId: Int</text><text style="fill: #000000; text-align: left; font-size: 1" x="31.9987" y="-2.89539">+type: Int</text><polyline style="fill: none; stroke-width: 0.1; stroke: #000000" points="63.7075,-0.75899 63.7075,4.505 68.5082,4.505 68.5082,5.9218 "/><text style="fill: #000000; text-align: center; font-size: 1" x="66.1078" y="4.505">évènementId</text><polyline style="fill: #000000" points="68.9578,4.505 68.9578,4.105 69.3578,4.305 "/><text style="fill: #000000; text-align: left; font-size: 1" x="63.7075" y="-0.75899"></text><text style="fill: #000000; text-align: left; font-size: 1" x="63.7075" y="0.04101"></text><text style="fill: #000000; text-align: left; font-size: 1" x="68.5082" y="4.3218"></text><text style="fill: #000000; text-align: left; font-size: 1" x="68.5082" y="5.1218"></text><polyline style="fill: none; stroke-width: 0.1; stroke: #000000" points="31.8487,-2.69539 31.8487,3.005 26.05,3.005 26.05,5.05 "/><text style="fill: #000000; text-align: center; font-size: 1" x="28.9494" y="3.005">indiId</text><polyline style="fill: #000000" points="27.2494,3.005 27.2494,2.605 26.8494,2.805 "/><text style="fill: #000000; text-align: left; font-size: 1" x="31.8487" y="-2.69539"></text><text style="fill: #000000; text-align: left; font-size: 1" x="31.8487" y="-1.89539"></text><text style="fill: #000000; text-align: left; font-size: 1" x="26.05" y="3.45"></text><text style="fill: #000000; text-align: left; font-size: 1" x="26.05" y="4.25"></text><polyline style="fill: none; stroke-width: 0.1; stroke: #000000" points="39.9487,-2.69539 39.9487,3.105 55.4082,3.105 55.4082,5.9218 "/><text style="fill: #000000; text-align: center; font-size: 1" x="47.6784" y="3.105">origineId</text><polyline style="fill: #000000" points="50.0284,3.105 50.0284,2.705 50.4284,2.905 "/><text style="fill: #000000; text-align: left; font-size: 1" x="39.9487" y="-2.69539"></text><text style="fill: #000000; text-align: left; font-size: 1" x="39.9487" y="-1.89539"></text><text style="fill: #000000; text-align: left; font-size: 1" x="55.4082" y="4.3218"></text><text style="fill: #000000; text-align: left; font-size: 1" x="55.4082" y="5.1218"></text><polyline style="fill: none; stroke-width: 0.1; stroke: #000000" points="39.9487,-2.69539 39.9487,3.105 46.2,3.105 46.2,4.75 "/><text style="fill: #000000; text-align: center; font-size: 1" x="43.0744" y="3.105"></text><text style="fill: #000000; text-align: left; font-size: 1" x="39.9487" y="-2.69539"></text><text style="fill: #000000; text-align: left; font-size: 1" x="39.9487" y="-1.89539"></text><text style="fill: #000000; text-align: left; font-size: 1" x="46.2" y="3.15"></text><text style="fill: #000000; text-align: left; font-size: 1" x="46.2" y="3.95"></text><polyline style="fill: none; stroke-width: 0.1; stroke: #000000" points="39.9487,-2.69539 39.9487,3.105 33.1,3.105 33.1,5.05 "/><text style="fill: #000000; text-align: center; font-size: 1" x="36.5243" y="3.105"></text><text style="fill: #000000; text-align: left; font-size: 1" x="39.9487" y="-2.69539"></text><text style="fill: #000000; text-align: left; font-size: 1" x="39.9487" y="-1.89539"></text><text style="fill: #000000; text-align: left; font-size: 1" x="33.1" y="3.45"></text><text style="fill: #000000; text-align: left; font-size: 1" x="33.1" y="4.25"></text><polyline style="fill: none; stroke-width: 0.1; stroke: #000000" points="18.332,-0.71465 18.332,1.505 6.65,1.505 6.65,5 "/><text style="fill: #000000; text-align: center; font-size: 1" x="12.491" y="1.505">itemId</text><text style="fill: #000000; text-align: left; font-size: 1" x="18.332" y="-0.71465"></text><text style="fill: #000000; text-align: left; font-size: 1" x="18.332" y="0.08535"></text><text style="fill: #000000; text-align: left; font-size: 1" x="6.65" y="3.4"></text><text style="fill: #000000; text-align: left; font-size: 1" x="6.65" y="4.2"></text><polyline style="fill: none; stroke-width: 0.1; stroke: #000000" points="18.332,-0.71465 18.332,1.505 19,1.505 19,5.05 "/><text style="fill: #000000; text-align: center; font-size: 1" x="18.666" y="1.505"></text><text style="fill: #000000; text-align: left; font-size: 1" x="18.332" y="-0.71465"></text><text style="fill: #000000; text-align: left; font-size: 1" x="18.332" y="0.08535"></text><text style="fill: #000000; text-align: left; font-size: 1" x="19" y="3.45"></text><text style="fill: #000000; text-align: left; font-size: 1" x="19" y="4.25"></text><polyline style="fill: none; stroke-width: 0.1; stroke: #000000" points="18.332,-0.71465 18.332,1.505 42.65,1.505 42.65,4.75 "/><text style="fill: #000000; text-align: center; font-size: 1" x="30.491" y="1.505"></text><text style="fill: #000000; text-align: left; font-size: 1" x="18.332" y="-0.71465"></text><text style="fill: #000000; text-align: left; font-size: 1" x="18.332" y="0.08535"></text><text style="fill: #000000; text-align: left; font-size: 1" x="42.65" y="3.15"></text><text style="fill: #000000; text-align: left; font-size: 1" x="42.65" y="3.95"></text><polyline style="fill: none; stroke-width: 0.1; stroke: #000000" points="18.332,-0.71465 18.332,1.505 61.9582,1.505 61.9582,5.9218 "/><text style="fill: #000000; text-align: center; font-size: 1" x="40.1451" y="1.505"></text><text style="fill: #000000; text-align: left; font-size: 1" x="18.332" y="-0.71465"></text><text style="fill: #000000; text-align: left; font-size: 1" x="18.332" y="0.08535"></text><text style="fill: #000000; text-align: left; font-size: 1" x="61.9582" y="4.3218"></text><text style="fill: #000000; text-align: left; font-size: 1" x="61.9582" y="5.1218"></text><rect style="fill: #ffffff" x="53.208" y="30.25" width="11.1" height="1.4"/><rect style="fill: none; stroke-width: 0.1; stroke: #000000" x="53.208" y="30.25" width="11.1" height="1.4"/><text style="fill: #000000; text-align: center; font-size: 1" x="58.758" y="31.25">Lieu</text><rect style="fill: #ffffff" x="53.208" y="31.65" width="11.1" height="5.8"/><rect style="fill: none; stroke-width: 0.1; stroke: #000000" x="53.208" y="31.65" width="11.1" height="5.8"/><text style="fill: #000000; text-align: left; font-size: 1" x="53.358" y="32.45">+id: Int</text><text style="fill: #000000; text-align: left; font-size: 1" x="53.358" y="33.25">+idLieuPrincipal: Int</text><text style="fill: #000000; text-align: left; font-size: 1" x="53.358" y="34.05">+ville: String</text><text style="fill: #000000; text-align: left; font-size: 1" x="53.358" y="34.85">+code: String</text><text style="fill: #000000; text-align: left; font-size: 1" x="53.358" y="35.65">+departement: String</text><text style="fill: #000000; text-align: left; font-size: 1" x="53.358" y="36.45">+région: String</text><text style="fill: #000000; text-align: left; font-size: 1" x="53.358" y="37.25">+pays: String</text><polyline style="fill: none; stroke-width: 0.1; stroke: #000000" points="61.9582,25.1218 61.9582,29.15 58.758,29.15 58.758,30.25 "/><text style="fill: #000000; text-align: center; font-size: 1" x="60.3581" y="29.15">lieuId</text><polyline style="fill: #000000" points="58.6581,29.15 58.6581,28.75 58.2581,28.95 "/><text style="fill: #000000; text-align: left; font-size: 1" x="61.9582" y="25.1218"></text><text style="fill: #000000; text-align: left; font-size: 1" x="61.9582" y="25.9218"></text><text style="fill: #000000; text-align: left; font-size: 1" x="58.758" y="28.65"></text><text style="fill: #000000; text-align: left; font-size: 1" x="58.758" y="29.45"></text></svg>
